<?xml version="1.0" encoding="utf-8"?>
<!-- Generator: Adobe Illustrator 18.1.1, SVG Export Plug-In . SVG Version: 6.00 Build 0)  -->
<!DOCTYPE svg PUBLIC "-//W3C//DTD SVG 1.1//EN" "http://www.w3.org/Graphics/SVG/1.1/DTD/svg11.dtd">
<svg version="1.1" xmlns="http://www.w3.org/2000/svg" xmlns:xlink="http://www.w3.org/1999/xlink" x="0px" y="0px"
	 viewBox="0 0 256 256" enable-background="new 0 0 256 256" xml:space="preserve">
<g id="Layer_1">
</g>
<g id="Isolation_Mode">
	<path fill="#87724F" d="M229.3,176.3c-1.8,0-3.3,0.6-4.8,1.5l-29.8-50.2l29.8-50.2c1.4,0.8,3,1.5,4.8,1.5c5.2,0,9.5-4.2,9.5-9.5
		c0-5.2-4.2-9.5-9.5-9.5c-5.2,0-9.5,4.2-9.5,9.5c0,0,0,0.1,0,0.1l-58.2,0.7l-28.5-50.9c2.9-1.6,4.9-4.6,4.9-8.1
		c0-5.2-4.2-9.5-9.5-9.5c-5.2,0-9.5,4.2-9.5,9.5c0,3.5,2,6.5,4.9,8.1L95.4,70.2l-58.2-0.7c0,0,0-0.1,0-0.1c0-5.2-4.2-9.5-9.5-9.5
		c-5.2,0-9.5,4.2-9.5,9.5c0,5.2,4.2,9.5,9.5,9.5c1.8,0,3.3-0.6,4.8-1.5l29.8,50.2l-29.8,50.2c-1.4-0.8-3-1.5-4.8-1.5
		c-5.2,0-9.5,4.2-9.5,9.5c0,5.2,4.2,9.5,9.5,9.5c5.2,0,9.5-4.2,9.5-9.5c0,0,0-0.1,0-0.1l58.2-0.7l28.5,50.9
		c-2.9,1.6-4.9,4.6-4.9,8.1c0,5.2,4.2,9.5,9.5,9.5c5.2,0,9.5-4.2,9.5-9.5c0-3.5-2-6.5-4.9-8.1l28.5-50.9l58.2,0.7c0,0,0,0.1,0,0.1
		c0,5.2,4.2,9.5,9.5,9.5c5.2,0,9.5-4.2,9.5-9.5C238.7,180.5,234.5,176.3,229.3,176.3z"/>
	<g>
	</g>
	<g>
	</g>
	<g>
	</g>
	<g>
	</g>
	<g>
	</g>
	<g>
	</g>
	<g>
	</g>
	<g>
	</g>
	<g>
	</g>
	<g>
	</g>
	<g>
	</g>
	<g>
	</g>
	<g>
	</g>
	<g>
	</g>
	<g>
	</g>
</g>
</svg>
