<?xml version="1.0" encoding="utf-8"?>
<!-- Generator: Adobe Illustrator 18.1.1, SVG Export Plug-In . SVG Version: 6.00 Build 0)  -->
<!DOCTYPE svg PUBLIC "-//W3C//DTD SVG 1.1//EN" "http://www.w3.org/Graphics/SVG/1.1/DTD/svg11.dtd">
<svg version="1.1" id="Layer_1" xmlns="http://www.w3.org/2000/svg" xmlns:xlink="http://www.w3.org/1999/xlink" x="0px" y="0px"
	 viewBox="0 0 144 82.3" enable-background="new 0 0 144 82.3" xml:space="preserve">
<g>
	<path fill="#BC9D6D" d="M107.1,47.2C107.1,47.2,107.1,47.2,107.1,47.2c6.5-2,13.3-4.6,19.8-8.2c10.4-6.1,15.8,0.2,11.9,9.8
		c-3.3,9-20.9,25.8-36.1,29.6c-5.9-4.1-17.4-7-30.6-7c-13.3,0.1-24.8,2.9-30.6,7C26.1,74.6,8.5,57.9,5.2,48.8
		C1.3,39.3,6.7,33,17.1,39.1c6.5,3.6,13.3,6.2,19.8,8.2c14,4.2,26.9,5.3,33.6,5.3l3.7,0C80.9,52.4,93.5,51.3,107.1,47.2z"/>
	<g id="XMLID_1_">
		<path fill="#BC9D6D" d="M88.2,4.8c5.5,2.7,14.3,28.4,17.8,38.9c-13.2,3.8-25.2,4.9-31.7,4.9l-3.7,0c-6.6,0-18.9-1-32.5-4.9
			C41.5,33.2,50.4,7.5,55.8,4.8c6.3-3.1,11.6,2,15.9,2.6H71c0.3,0,0.7,0.1,1,0c0.4,0,0.7,0,1.1,0h-0.8C76.5,6.9,81.9,1.7,88.2,4.8z
			 M86,24.7c0-1.1-0.9-2.1-2.1-2.1c-1,0-1.9,0.8-2,1.8l-6.4-0.9l-2.8-5.7c0.8-0.3,1.3-1,1.3-1.9c0-1.1-0.9-2.1-2.1-2.1
			s-2.1,0.9-2.1,2.1c0,0.9,0.5,1.6,1.3,1.9l-2.8,5.7l-6.4,0.9c-0.1-1-1-1.8-2-1.8c-1.1,0-2.1,0.9-2.1,2.1c0,1.1,0.9,2.1,2.1,2.1
			c0.7,0,1.3-0.3,1.7-0.9l4.5,4.4l-1.1,6.6c-0.3-0.1-0.5-0.2-0.8-0.2c-1.1,0-2.1,0.9-2.1,2.1s0.9,2.1,2.1,2.1c1.1,0,2.1-0.9,2.1-2.1
			c0-0.4-0.1-0.8-0.4-1.2l6-3.2l6,3.2c-0.2,0.3-0.4,0.7-0.4,1.2c0,1.1,0.9,2.1,2.1,2.1c1.1,0,2.1-0.9,2.1-2.1s-0.9-2.1-2.1-2.1
			c-0.3,0-0.6,0.1-0.8,0.2l-1.1-6.6l4.5-4.4c0.4,0.5,1,0.9,1.7,0.9C85.1,26.8,86,25.9,86,24.7z"/>
	</g>
</g>
<g>
</g>
<g>
</g>
<g>
</g>
<g>
</g>
<g>
</g>
<g>
</g>
</svg>
