<?xml version="1.0" encoding="utf-8"?>
<!-- Generator: Adobe Illustrator 18.1.1, SVG Export Plug-In . SVG Version: 6.00 Build 0)  -->
<!DOCTYPE svg PUBLIC "-//W3C//DTD SVG 1.1//EN" "http://www.w3.org/Graphics/SVG/1.1/DTD/svg11.dtd">
<svg version="1.1" id="Layer_1" xmlns="http://www.w3.org/2000/svg" xmlns:xlink="http://www.w3.org/1999/xlink" x="0px" y="0px"
	 viewBox="0 0 144 144" enable-background="new 0 0 144 144" xml:space="preserve">
<g id="Your_Icon_2_">
	<path fill="#BC9D6D" d="M25.7,134c1.6,0.1,3-1,3.3-2.5c-0.1,1.7,1.1,3.2,2.8,3.4c1.7,0.2,3.3-1.1,3.4-2.8c0.2-1.8,0.6-6.5,0.8-8.2
		c0,0,0.1,0,0.1,0c11.2,0.9,23.8-7.4,26.3-25.1c1.1-7.6-0.9-15.3-5.5-21.4c-3.2-4.2-7.3-7.4-12-9.3c0.3-0.7,0.6-1.4,0.7-2.2
		c0.3-2-0.2-4-1.5-5.7c-1.2-1.6-3-2.7-5-3c-3.8-0.5-7.4,1.8-8.4,5.5c-0.1,0.3-0.2,0.7-0.2,1c-0.1,0.8-0.1,1.6,0.1,2.3
		c-0.8,0.1-1.6,0.2-2.4,0.4l-2-5.4c2-1.4,3.6-3.5,4.3-5.9c0.3-1.2,0.5-2.5,0.4-3.7l-0.9-13.9c-0.1-1.3-0.4-2.5-0.9-3.7l7.4-6.1
		c0.2,0.1,0.3,0.2,0.5,0.3c2.6,1.3,5.6,1.5,8.4,0.5L58.5,24c3.4-1.2,6-3.9,7-7.4c0,0,0,0,0-0.1l6.5-0.1c1.1,2.7,3.2,4.9,6,6.1
		l12.8,5.3c2.7,1.1,5.6,1.1,8.3,0l2.9,3.7c-0.6,0.9-1.1,1.9-1.4,3c-0.4,1.5-0.5,3-0.3,4.5l1.9,13.8c0.6,4.1,3.4,7.4,7,8.8L109,66
		c-9.6,0.3-18.9,5.4-24.1,14.4c-1.6,2.8-2.8,5.6-3.6,8.4c-3.4,12.1,1.1,22.6,8.8,27.6c0,0,0.1,0.1,0.1,0.1c-0.9,1.5-3.4,5.5-4.4,7.1
		c-0.9,1.5-0.5,3.4,1,4.3c1.5,0.9,3.4,0.5,4.3-1l0,0c-0.1,0.2-0.2,0.4-0.3,0.6c-0.4,1.3,0.1,2.7,1.3,3.5c1.5,0.9,3.4,0.5,4.3-1
		c0.4-0.6,3.5-5.5,4.5-7.3c0,0,0.1,0,0.1,0c10,5.1,24.8,2.1,33.8-13.4c6.7-11.6,4.4-26-4.7-35.1c0.6-0.5,1.1-1.1,1.5-1.8
		c0.3-0.5,0.6-1.1,0.7-1.7c1-3.4-0.5-6.9-3.5-8.7c-3.6-2.1-8.3-0.9-10.4,2.8c-0.3,0.5-0.6,1.1-0.7,1.7c0,0.2-0.1,0.3-0.1,0.5
		c-0.8-0.2-1.6-0.4-2.4-0.6l0.2-4.6c3.9-0.9,7-3.8,8.2-7.7c0.4-1.5,0.5-3,0.3-4.5L122,36c-0.8-6-6.4-10.2-12.3-9.4
		c-1,0.1-2,0.4-2.9,0.8l-2.8-3.5c0.4-0.6,0.8-1.3,1.1-2.1c2.3-5.7-0.4-12-6-14.3L86.4,2.2c-2.7-1.1-5.7-1.1-8.4,0
		c-2.7,1.1-4.8,3.2-5.9,5.9c-0.2,0.4-0.3,0.8-0.4,1.2c-0.1,0.3-0.1,0.5-0.2,0.8l-6.1,0.1c0-0.1,0-0.1-0.1-0.2
		c-0.9-2.8-2.9-5-5.5-6.3c-2.6-1.3-5.6-1.5-8.4-0.5L38.3,7.7c-3.4,1.2-6,3.9-7,7.4c-0.6,2.1-0.6,4.4,0.2,6.5c0.2,0.5,0.4,1,0.6,1.5
		L25,29c-2-1.3-4.3-1.9-6.7-1.8c-4.6,0.3-8.6,3.5-9.8,7.9c-0.3,1.2-0.5,2.5-0.4,3.7L9,52.7c0.4,5.9,5.4,10.4,11.3,10.2l2,5.3
		C14.5,71.7,8.5,78.3,6.1,86.8c-0.4,1.3-0.6,2.6-0.8,3.9c-2.5,17.7,7.3,29.2,18.3,31.4c0.1,0,0.1,0,0.1,0c-0.2,2.1-0.8,7.8-0.8,8.5
		C22.7,132.4,24,133.9,25.7,134z M129.5,106.3c-5.3,9.2-15.8,15.8-25.5,10.9c-3-1.5-6.5-0.7-8.1,1.9c1.5-2.6,0.4-6.1-2.4-8
		c-9.1-6-8.5-18.4-3.2-27.6c6.3-10.8,20.2-14.5,31-8.2C132.1,81.6,135.8,95.5,129.5,106.3z M124,68c0.4-0.7,1.2-0.9,1.9-0.5
		c0.5,0.3,0.8,1,0.6,1.6c0,0.1-0.1,0.2-0.1,0.3c-0.4,0.6-1.2,0.9-1.9,0.5c0,0,0,0,0,0c0,0,0,0,0,0C123.8,69.5,123.6,68.7,124,68z
		 M115.8,36.8l1.9,13.8c0.1,0.6,0,1.3-0.1,1.9c-0.3,1.1-1,2-1.9,2.6l0.2-4.4c0.1-1.7-1.3-3.2-3-3.2c-1.5-0.1-2.7,0.9-3.1,2.3
		c-0.1,0.2-0.1,0.5-0.1,0.8l-0.1,3.7c-0.5-0.6-0.9-1.4-1-2.3l-1.9-13.8c0-0.3-0.1-0.7,0-1l2.2,2.7c1.1,1.4,3,1.6,4.4,0.5
		c1.4-1.1,1.6-3,0.5-4.4l-2.5-3.2C113.4,32.8,115.5,34.5,115.8,36.8z M80.4,8c1.2-0.5,2.4-0.5,3.6,0l12.8,5.3c2,0.8,3.2,2.9,2.8,5
		l-1.5-1.9c-1.1-1.4-3-1.6-4.4-0.5c-0.5,0.4-0.9,1-1.1,1.6c-0.3,0.9-0.1,2,0.6,2.8l1.6,2c-0.5,0-1-0.1-1.5-0.3l-12.8-5.3
		c-0.3-0.1-0.5-0.3-0.8-0.4l2.4,0c1.7,0,3.1-1.5,3.1-3.2c0-1.7-1.5-3.1-3.2-3.1L78.2,10C78.7,9.1,79.4,8.4,80.4,8z M40.3,13.6
		l13.1-4.5c1.2-0.4,2.5-0.3,3.6,0.2c0.5,0.3,1,0.6,1.4,1l-2.5,0.1c-1.4,0-2.6,1-3,2.3c-0.1,0.3-0.1,0.6-0.1,0.9
		c0,1.7,1.5,3.1,3.2,3.1l2.4,0c-0.5,0.6-1.2,1.1-2,1.4l-13.2,4.5c-0.3,0.1-0.6,0.2-0.9,0.2l2.3-1.9c1.3-1.1,1.5-3.1,0.4-4.4
		C44,15.1,42,14.9,40.7,16l-3.5,2.9C36.9,16.7,38.2,14.4,40.3,13.6z M15.2,52.3l-0.9-13.9c-0.2-2.5,1.9-4.8,4.4-5c0.3,0,0.5,0,0.8,0
		l-2.1,1.7c-0.5,0.4-0.9,1-1,1.6c-0.3,1-0.1,2,0.6,2.9c1.1,1.3,3.1,1.5,4.4,0.4l2.3-1.9l0.9,13.6c0,0.5,0,1.1-0.2,1.6
		c-0.1,0.4-0.3,0.9-0.6,1.2l-1.1-3c-0.6-1.6-2.4-2.5-4-1.9c-1,0.4-1.7,1.2-1.9,2.1c-0.2,0.6-0.2,1.3,0.1,1.9l0.9,2.5
		C16.4,55.4,15.3,54,15.2,52.3z M37,65.5c-0.1-0.2-0.3-0.5-0.3-1c0.1-0.8,0.8-1.3,1.5-1.2c0.5,0.1,0.8,0.4,0.9,0.5
		c0.1,0.2,0.3,0.5,0.3,1c0,0.1,0,0.1,0,0.2c-0.2,0.6-0.8,1.1-1.5,1l0,0c0,0,0,0,0,0C37.5,66,37.2,65.7,37,65.5z M11.5,91.5
		c1.7-12.4,13.2-21,25.6-19.3c6,0.8,11.3,4,14.9,8.8c3.6,4.8,5.2,10.8,4.3,16.8c-1.9,13.9-11.3,20.4-19.6,19.7
		c-3.3-0.3-6.3,1.8-6.8,4.8c0.3-3-1.9-5.8-5.2-6.5C14.1,113.7,10,102,11.5,91.5z"/>
</g>
<g>
</g>
<g>
</g>
<g>
</g>
<g>
</g>
<g>
</g>
<g>
</g>
</svg>
