<?xml version="1.0" encoding="utf-8"?>
<!-- Generator: Adobe Illustrator 18.1.1, SVG Export Plug-In . SVG Version: 6.00 Build 0)  -->
<!DOCTYPE svg PUBLIC "-//W3C//DTD SVG 1.1//EN" "http://www.w3.org/Graphics/SVG/1.1/DTD/svg11.dtd">
<svg version="1.1" id="Layer_1" xmlns="http://www.w3.org/2000/svg" xmlns:xlink="http://www.w3.org/1999/xlink" x="0px" y="0px"
	 viewBox="0 0 720 720" enable-background="new 0 0 720 720" xml:space="preserve">
<g id="Layer_1_1_">
</g>
<g id="Isolation_Mode">
	<path fill="#87724F" d="M644.9,495.8c-5.1,0-9.3,1.7-13.5,4.2l-83.8-141.2l83.8-141.2c3.9,2.2,8.4,4.2,13.5,4.2
		c14.6,0,26.7-11.8,26.7-26.7c0-14.6-11.8-26.7-26.7-26.7c-14.6,0-26.7,11.8-26.7,26.7v0.3l-163.7,2L374.3,54.3
		c8.2-4.5,13.8-12.9,13.8-22.8c0-14.6-11.8-26.7-26.7-26.7c-14.6,0-26.7,11.8-26.7,26.7c0,9.8,5.6,18.3,13.8,22.8l-80.2,143.2
		l-163.7-2v-0.3c0-14.6-11.8-26.7-26.7-26.7c-14.6,0-26.7,11.8-26.7,26.7c0,14.6,11.8,26.7,26.7,26.7c5.1,0,9.3-1.7,13.5-4.2
		l83.8,141.2L91.4,500.1c-3.9-2.2-8.4-4.2-13.5-4.2c-14.6,0-26.7,11.8-26.7,26.7c0,14.6,11.8,26.7,26.7,26.7
		c14.6,0,26.7-11.8,26.7-26.7v-0.3l163.7-2l80.2,143.2c-8.2,4.5-13.8,12.9-13.8,22.8c0,14.6,11.8,26.7,26.7,26.7
		c14.6,0,26.7-11.8,26.7-26.7c0-9.8-5.6-18.3-13.8-22.8l80.2-143.2l163.7,2v0.3c0,14.6,11.8,26.7,26.7,26.7
		c14.6,0,26.7-11.8,26.7-26.7C671.3,507.7,659.5,495.8,644.9,495.8z"/>
</g>
</svg>
